HIERARCHY
ROOT Hips
{
	OFFSET 0.00000 0.00000 0.00000
	CHANNELS 6 Xposition Yposition Zposition Zrotation Yrotation Xrotation 
	JOINT LHipJoint
	{
		OFFSET 0 0 0
		CHANNELS 3 Zrotation Yrotation Xrotation
		JOINT LeftUpLeg
		{
			OFFSET 1.33213 -1.58186 0.78596
			CHANNELS 3 Zrotation Yrotation Xrotation
			JOINT LeftLeg
			{
				OFFSET 2.29717 -6.31144 0.00000
				CHANNELS 3 Zrotation Yrotation Xrotation
				JOINT LeftFoot
				{
					OFFSET 2.38430 -6.55082 0.00000
					CHANNELS 3 Zrotation Yrotation Xrotation
					JOINT LeftToeBase
					{
						OFFSET 0.11863 -0.32594 1.77568
						CHANNELS 3 Zrotation Yrotation Xrotation
						End Site
						{
							OFFSET 0.00000 -0.00000 0.91633
						}
					}
				}
			}
		}
	}
	JOINT RHipJoint
	{
		OFFSET 0 0 0
		CHANNELS 3 Zrotation Yrotation Xrotation
		JOINT RightUpLeg
		{
			OFFSET -1.41575 -1.58186 0.78596
			CHANNELS 3 Zrotation Yrotation Xrotation
			JOINT RightLeg
			{
				OFFSET -2.42012 -6.64922 0.00000
				CHANNELS 3 Zrotation Yrotation Xrotation
				JOINT RightFoot
				{
					OFFSET -2.47254 -6.79327 0.00000
					CHANNELS 3 Zrotation Yrotation Xrotation
					JOINT RightToeBase
					{
						OFFSET -0.15219 -0.41813 1.93430
						CHANNELS 3 Zrotation Yrotation Xrotation
						End Site
						{
							OFFSET -0.00000 -0.00000 0.99984
						}
					}
				}
			}
		}
	}
	JOINT LowerBack
	{
		OFFSET 0 0 0
		CHANNELS 3 Zrotation Yrotation Xrotation
		JOINT Spine
		{
			OFFSET -0.04717 2.09389 -0.14516
			CHANNELS 3 Zrotation Yrotation Xrotation
			JOINT Spine1
			{
				OFFSET 0.02825 2.09433 -0.11325
				CHANNELS 3 Zrotation Yrotation Xrotation
				JOINT Neck
				{
					OFFSET 0 0 0
					CHANNELS 3 Zrotation Yrotation Xrotation
					JOINT Neck1
					{
						OFFSET -0.01210 1.39029 0.12448
						CHANNELS 3 Zrotation Yrotation Xrotation
						JOINT Head
						{
							OFFSET 0.09492 1.38365 0.14559
							CHANNELS 3 Zrotation Yrotation Xrotation
							End Site
							{
								OFFSET 0.03402 1.40343 0.03708
							}
						}
					}
				}
				JOINT LeftShoulder
				{
					OFFSET 0 0 0
					CHANNELS 3 Zrotation Yrotation Xrotation
					JOINT LeftArm
					{
						OFFSET 2.83352 1.10671 -0.20481
						CHANNELS 3 Zrotation Yrotation Xrotation
						JOINT LeftForeArm
						{
							OFFSET 4.77195 -0.00000 -0.00000
							CHANNELS 3 Zrotation Yrotation Xrotation
							JOINT LeftHand
							{
								OFFSET 2.98444 -0.00000 0.00000
								CHANNELS 3 Zrotation Yrotation Xrotation
								JOINT LeftFingerBase
								{
									OFFSET 0 0 0
									CHANNELS 3 Zrotation Yrotation Xrotation
									JOINT LeftHandIndex1
									{
										OFFSET 0.99228 -0.00000 0.00000
										CHANNELS 3 Zrotation Yrotation Xrotation
										End Site
										{
											OFFSET 0.80001 -0.00000 0.00000
										}
									}
								}
								JOINT LThumb
								{
									OFFSET 0 0 0
									CHANNELS 3 Zrotation Yrotation Xrotation
									End Site
									{
										OFFSET 0.81222 -0.00000 0.81222
									}
								}
							}
						}
					}
				}
				JOINT RightShoulder
				{
					OFFSET 0 0 0
					CHANNELS 3 Zrotation Yrotation Xrotation
					JOINT RightArm
					{
						OFFSET -3.23760 1.11106 0.06723
						CHANNELS 3 Zrotation Yrotation Xrotation
						JOINT RightForeArm
						{
							OFFSET -4.62052 -0.00000 0.00000
							CHANNELS 3 Zrotation Yrotation Xrotation
							JOINT RightHand
							{
								OFFSET -2.95332 -0.00000 0.00000
								CHANNELS 3 Zrotation Yrotation Xrotation
								JOINT RightFingerBase
								{
									OFFSET 0 0 0
									CHANNELS 3 Zrotation Yrotation Xrotation
									JOINT RightHandIndex1
									{
										OFFSET -0.99096 -0.00000 0.00000
										CHANNELS 3 Zrotation Yrotation Xrotation
										End Site
										{
											OFFSET -0.79893 -0.00000 0.00000
										}
									}
								}
								JOINT RThumb
								{
									OFFSET 0 0 0
									CHANNELS 3 Zrotation Yrotation Xrotation
									End Site
									{
										OFFSET -0.81113 -0.00000 0.81113
									}
								}
							}
						}
					}
				}
			}
		}
	}
}
MOTION
Frames: 10
Frame Time: .0083333
-0.2828 16.2276 31.8458 0 0 0 0 0 0 -21 0 0 0 0 0 0 0 0 0 0 0 0 0 0 21 0 0 0 0 0 0 0 0 0 0 0 0 0 0 0 0 0 0 0 0 0 0 -16 0 0 21 0 0 11 0 0 0 -8 0 0 0 0 0 0 0 0 0 0 0 0 0 0 0 0 0 0 0 0 8 0 0 0 0 0 0 0 0 0 0 0 0 0 0 0 0 0
-0.2828 16.2276 31.8458 -176.2520 -10.8274 -170.2070 0.0000 0.0000 0.0000 -17.0482 -5.3342 -0.8722 0.2265 3.0632 8.4549 0.4789 -5.5268 -12.3535 1.7700 -8.3697 -23.8426 0.0000 0.0000 0.0000 19.4264 3.6757 -28.5657 -1.9003 -8.6553 24.7229 -0.1941 13.0285 -11.4455 -0.1732 -2.6807 7.3909 -1.6643 -2.0746 -12.0280 2.4066 -2.7647 1.6604 2.9704 -1.5069 8.7466 -4.5823 -2.5605 1.9173 8.4652 -3.3306 -7.7287 3.7248 -1.9092 -2.6151 0.0000 -0.0000 0.0000 -91.7520 -4.4044 22.2620 8.7830 -14.8140 -1.1440 -0.0000 -0.0000 31.9349 8.5674 8.0751 1.2123 -7.1250 0.0000 -0.0000 -15.5434 37.7130 2.8721 0.0000 -0.0000 0.0000 90.9487 -2.5587 -5.3321 -12.6062 20.7076 -2.3122 0.0000 0.0000 35.6346 -6.2188 -12.7344 1.3760 7.1250 -0.0000 -0.0000 18.7740 -41.9998 1.4459
-0.2820 16.2267 31.8456 -176.1940 -10.8377 -170.1960 0.0000 0.0000 0.0000 -16.9847 -5.3547 -0.9270 0.2312 3.0946 8.5423 0.4795 -5.5360 -12.3616 1.7635 -8.3551 -23.7980 0.0000 0.0000 0.0000 19.5175 3.6139 -28.6276 -1.8980 -8.6503 24.7074 -0.1304 12.9293 -10.6671 -0.2259 -3.0593 8.4439 -1.5948 -2.0522 -12.0429 2.4216 -2.7476 1.7054 2.9496 -1.4967 8.8002 -4.6383 -2.5945 1.8019 8.5554 -3.3754 -7.7335 3.7648 -1.9330 -2.5903 0.0000 -0.0000 0.0000 -91.7023 -4.4703 22.4411 8.7969 -14.8361 -1.1475 -0.0000 -0.0000 31.7083 8.8814 8.1038 1.2619 -7.1250 0.0000 -0.0000 -15.2895 37.7624 2.8033 0.0000 -0.0000 0.0000 90.9259 -2.4296 -5.5426 -12.5583 20.6366 -2.2953 0.0000 0.0000 35.7738 -6.2526 -12.5455 1.3633 7.1250 -0.0000 -0.0000 18.6863 -41.8236 1.5233
-0.2825 16.2286 31.8443 -176.1000 -10.8827 -170.1790 0.0000 0.0000 0.0000 -16.8620 -5.4220 -1.0248 0.2376 3.1371 8.6608 0.4823 -5.5424 -12.3963 1.7548 -8.3355 -23.7379 0.0000 0.0000 0.0000 19.6377 3.5969 -28.6436 -1.8917 -8.6367 24.6654 -0.0839 12.6273 -9.9283 -0.3054 -3.5529 9.8221 -1.4962 -2.0399 -12.0355 2.4585 -2.7513 1.6926 2.9329 -1.4953 8.7793 -4.5858 -2.6530 1.8622 8.5146 -3.4533 -7.7765 3.7447 -1.9734 -2.6111 -0.0000 0.0000 0.0000 -91.6843 -4.4315 22.7478 8.8390 -14.9035 -1.1584 -0.0000 -0.0000 31.2636 9.0053 8.3628 1.3204 -7.1250 0.0000 -0.0000 -15.2452 38.0234 2.6940 -0.0000 0.0000 0.0000 90.9125 -2.4658 -5.6359 -12.5724 20.6574 -2.3002 0.0000 0.0000 35.8192 -6.1937 -12.4006 1.3350 7.1250 -0.0000 -0.0000 18.6920 -41.6802 1.5927
-0.2840 16.2293 31.8431 -176.0060 -10.9518 -170.1650 0.0000 0.0000 0.0000 -16.7456 -5.4827 -1.0441 0.2371 3.1337 8.6512 0.4822 -5.5199 -12.3939 1.7531 -8.3316 -23.7260 0.0000 0.0000 0.0000 19.7243 3.6168 -28.6615 -1.8942 -8.6422 24.6823 -0.0485 12.3260 -9.2889 -0.4002 -4.0617 11.2502 -1.3892 -2.0408 -12.0179 2.5040 -2.7748 1.6756 2.9168 -1.5034 8.7493 -4.5037 -2.6969 1.9080 8.4174 -3.5126 -7.8226 3.6985 -2.0029 -2.6327 0.0000 0.0000 0.0000 -91.6949 -4.3930 23.0383 8.8818 -14.9719 -1.1694 -0.0000 -0.0000 30.8874 8.9889 8.6465 1.3623 -7.1250 0.0000 -0.0000 -15.3241 38.2989 2.6019 0.0000 0.0000 0.0000 90.8894 -2.5135 -5.6169 -12.5984 20.6960 -2.3094 0.0000 0.0000 35.7516 -6.0453 -12.5406 1.3173 7.1250 -0.0000 -0.0000 18.8620 -41.7990 1.5507
-0.2842 16.2268 31.8429 -175.9900 -10.9791 -170.1410 0.0000 0.0000 0.0000 -16.7334 -5.4839 -0.9898 0.2297 3.0851 8.5156 0.4800 -5.4775 -12.3638 1.7927 -8.4203 -23.9981 0.0000 0.0000 0.0000 19.7306 3.6312 -28.7203 -1.9040 -8.6633 24.7476 -0.0158 12.0856 -8.6946 -0.4728 -4.4101 12.2333 -1.4118 -2.0682 -12.0035 2.5627 -2.8150 1.6801 2.9848 -1.5267 8.7532 -4.5253 -2.6662 1.9267 8.4151 -3.4718 -7.8448 3.7025 -1.9825 -2.6465 0.0000 -0.0000 0.0000 -91.8053 -4.5013 22.1112 8.7242 -14.7198 -1.1290 -0.0000 -0.0000 31.8499 9.0984 8.0539 1.2853 -7.1250 0.0000 -0.0000 -15.0983 37.7284 2.7792 0.0000 -0.0000 0.0000 90.7959 -2.5189 -5.4752 -12.6068 20.7084 -2.3124 0.0000 0.0000 35.5935 -6.0014 -12.6161 1.3154 7.1250 -0.0000 -0.0000 18.9231 -41.8665 1.5233
-0.2838 16.2232 31.8406 -176.1110 -10.9705 -170.1070 0.0000 0.0000 0.0000 -16.8806 -5.4476 -0.8718 0.2181 3.0063 8.2963 0.4769 -5.4052 -12.3195 1.8528 -8.5524 -24.4050 0.0000 0.0000 0.0000 19.6188 3.5680 -28.8122 -1.9196 -8.6966 24.8507 0.0581 11.6813 -7.3352 -0.7112 -5.3897 15.0234 -1.5856 -2.1012 -12.0024 2.5925 -2.8356 1.6979 3.1111 -1.5466 8.7843 -4.5686 -2.6327 1.9212 8.4288 -3.4273 -7.7820 3.7126 -1.9573 -2.6270 -0.0000 0.0000 0.0000 -91.9603 -4.5620 22.2804 8.7809 -14.8106 -1.1435 -0.0000 -0.0000 31.5352 8.8275 8.9103 1.3779 -7.1250 0.0000 -0.0000 -15.5204 38.5442 2.5407 -0.0000 0.0000 0.0000 90.6912 -2.5398 -5.3570 -12.6255 20.7360 -2.3190 0.0000 0.0000 35.4712 -6.0871 -12.4841 1.3206 7.1250 -0.0000 -0.0000 18.8088 -41.7493 1.5700
-0.2840 16.2218 31.8376 -176.2820 -10.9567 -170.0660 0.0000 0.0000 0.0000 -17.0801 -5.4123 -0.7470 0.2062 2.9237 8.0664 0.4712 -5.3253 -12.2421 1.8725 -8.5953 -24.5372 0.0000 0.0000 0.0000 19.4287 3.5500 -28.8782 -1.9357 -8.7309 24.9572 0.0532 11.8211 -7.5171 -0.7783 -5.6327 15.7225 -1.7402 -2.1243 -11.9911 2.5606 -2.8382 1.7188 3.1643 -1.5541 8.8070 -4.5661 -2.6263 1.8077 8.4210 -3.4194 -7.6467 3.7014 -1.9483 -2.5608 -0.0000 -0.0000 0.0000 -92.0113 -4.6502 21.5800 8.6658 -14.6263 -1.1142 -0.0000 -0.0000 32.3006 8.9146 8.4526 1.3208 -7.1250 0.0000 -0.0000 -15.3413 38.1047 2.6804 -0.0000 -0.0000 0.0000 90.6562 -2.4963 -5.3886 -12.6010 20.6999 -2.3104 0.0000 0.0000 35.5116 -6.1593 -12.3839 1.3258 7.1250 -0.0000 -0.0000 18.7162 -41.6611 1.6041
-0.2837 16.2228 31.8357 -176.3420 -10.9724 -170.0230 0.0000 0.0000 0.0000 -17.1456 -5.4008 -0.6589 0.1948 2.8421 7.8395 0.4650 -5.2381 -12.1573 1.8982 -8.6508 -24.7088 0.0000 0.0000 0.0000 19.3312 3.6443 -28.9180 -1.9488 -8.7587 25.0433 0.0442 11.8461 -7.6714 -0.8101 -5.7438 16.0427 -1.7383 -2.1368 -11.9523 2.5156 -2.8497 1.7093 3.1138 -1.5570 8.7724 -4.5373 -2.6130 1.7464 8.4457 -3.4008 -7.5549 3.6996 -1.9382 -2.5199 -0.0000 0.0000 0.0000 -91.9086 -4.5970 21.5693 8.6695 -14.6322 -1.1152 -0.0000 -0.0000 32.3190 8.8667 8.5381 1.3268 -7.1250 0.0000 -0.0000 -15.4008 38.1845 2.6603 -0.0000 0.0000 0.0000 90.6938 -2.5068 -5.3299 -12.5896 20.6829 -2.3063 0.0000 0.0000 35.4760 -6.1626 -12.3363 1.3215 7.1250 -0.0000 -0.0000 18.6988 -41.6161 1.6241
-0.2840 16.2239 31.8336 -176.3060 -10.9975 -169.9700 0.0000 0.0000 0.0000 -17.1037 -5.3982 -0.6177 0.1848 2.7688 7.6358 0.4572 -5.1893 -12.0537 1.8987 -8.6517 -24.7118 0.0000 0.0000 0.0000 19.3392 3.7549 -28.9607 -1.9571 -8.7762 25.0977 0.0404 11.7551 -7.6589 -0.7863 -5.6608 15.8033 -1.6628 -2.1485 -11.9259 2.5316 -2.8788 1.6765 3.0832 -1.5675 8.7205 -4.5427 -2.5899 1.8034 8.4216 -3.3703 -7.5558 3.6934 -1.9221 -2.5333 -0.0000 -0.0000 0.0000 -91.8854 -4.5349 21.7660 8.6957 -14.6741 -1.1218 -0.0000 -0.0000 32.0604 8.6205 9.1043 1.3742 -7.1250 0.0000 -0.0000 -15.7397 38.7174 2.5096 -0.0000 -0.0000 0.0000 90.6784 -2.6490 -5.1241 -12.6333 20.7475 -2.3218 0.0000 0.0000 35.3551 -6.1666 -12.2762 1.3160 7.1250 -0.0000 -0.0000 18.6769 -41.5594 1.6493
